<?xml version="1.0" encoding="UTF-8" standalone="no"?>
<!-- Created with Inkscape (http://www.inkscape.org/) -->

<svg
   xmlns:dc="http://purl.org/dc/elements/1.1/"
   xmlns:cc="http://creativecommons.org/ns#"
   xmlns:rdf="http://www.w3.org/1999/02/22-rdf-syntax-ns#"
   xmlns:svg="http://www.w3.org/2000/svg"
   xmlns="http://www.w3.org/2000/svg"
   xmlns:sodipodi="http://sodipodi.sourceforge.net/DTD/sodipodi-0.dtd"
   xmlns:inkscape="http://www.inkscape.org/namespaces/inkscape"
   width="224"
   height="180"
   id="svg2"
   version="1.1"
   inkscape:version="0.48.2 r9819"
   sodipodi:docname="logo_ritsi_blanco.svg">
  <defs
     id="defs4">
    <clipPath
       id="clipPath3087"
       clipPathUnits="userSpaceOnUse">
      <path
         id="path3089"
         d="M 0,11217.7 0,0 l 14670,0 0,11217.7 -14670,0 z"
         inkscape:connector-curvature="0" />
    </clipPath>
  </defs>
  <sodipodi:namedview
     id="base"
     pagecolor="#ffffff"
     bordercolor="#666666"
     borderopacity="1.0"
     inkscape:pageopacity="0.0"
     inkscape:pageshadow="2"
     inkscape:zoom="1.1575153"
     inkscape:cx="258.04962"
     inkscape:cy="63.173175"
     inkscape:document-units="px"
     inkscape:current-layer="layer1"
     showgrid="false"
     inkscape:snap-global="true"
     inkscape:window-width="1211"
     inkscape:window-height="658"
     inkscape:window-x="0"
     inkscape:window-y="0"
     inkscape:window-maximized="0"
     height="744.09px" />
  <metadata
     id="metadata7">
    <rdf:RDF>
      <cc:Work
         rdf:about="">
        <dc:format>image/svg+xml</dc:format>
        <dc:type
           rdf:resource="http://purl.org/dc/dcmitype/StillImage" />
        <dc:title />
      </cc:Work>
    </rdf:RDF>
  </metadata>
  <g
     inkscape:label="Layer 1"
     inkscape:groupmode="layer"
     id="layer1"
     transform="translate(0,-872.36518)">
    <g
       transform="matrix(0.07372044,0,0,-0.07372044,0.9138504,1045.0364)"
       inkscape:label="ritsi-logo"
       id="g3079">
      <g
         transform="scale(0.204499,0.204499)"
         id="g3081">
        <g
           id="g3083">
          <g
             clip-path="url(#clipPath3087)"
             id="g3085">
            <path
               id="path3091"
               style="fill:#ffffff;fill-opacity:1;fill-rule:evenodd;stroke:none"
               d="m 5427.56,2463.19 c 0.93,-3.28 1.81,-6.55 2.74,-9.83 9.43,-1.32 18.92,-3.47 28.41,-3.81 229.49,-8.32 459.02,-16.09 688.46,-25.04 23.81,-0.93 39.17,8.61 55.11,24.16 168.41,164.21 349.63,312.37 551.06,434.82 6.2,3.76 11.49,9.09 25.57,20.53 -88.61,-6.45 -165.97,-11.98 -243.37,-17.75 -189.93,-14.18 -379.86,-28.7 -569.89,-42.64 -26.89,-1.95 -49.73,-10.8 -71.44,-27.14 -88.56,-66.5 -178.48,-131.15 -266.9,-197.85 -67.33,-50.8 -133.2,-103.57 -199.75,-155.45 z M 8953.1,2272.34 c 127.24,-11.59 242.3,-20.3 356.87,-32.87 164.89,-18.14 329.64,-37.89 494.04,-59.85 30.12,-4.01 50.9,0.64 74.77,19.22 269.72,209.93 540.52,418.63 810.82,627.78 9.7,7.43 18.4,16.08 33.5,29.43 -51.7,4.8 -95.1,9.29 -138.6,12.77 -188.2,15.06 -376.4,29.58 -564.5,44.79 -23.77,1.96 -43.71,-2.99 -64.35,-15.79 -317.65,-197.86 -635.8,-394.97 -953.79,-592.33 -13.45,-8.36 -26.22,-17.8 -48.76,-33.15 z M 5884.43,2137.37 c -8.7,2.45 -12.91,4.7 -17.07,4.65 -267.18,-4.84 -534.38,-9.93 -801.56,-14.82 -25.43,-0.44 -46.21,-8.95 -66.31,-25.52 -232.55,-191.84 -465.76,-382.89 -698.69,-574.24 -5.7,-4.69 -10.23,-10.76 -18.88,-20.05 13.72,-1.61 21.4,-2.93 29.13,-3.42 154.52,-9.09 309.03,-18.14 463.55,-27.09 144.74,-8.36 289.58,-15.7 434.23,-25.63 27.58,-1.85 44.6,5.97 62.88,25.73 193.65,209.39 388.27,417.8 582.55,626.55 9.53,10.22 18.63,20.88 30.17,33.84 z m 3138.5,816.09 c -0.93,3.13 -1.91,6.31 -2.84,9.49 -67.92,1.57 -135.79,4.4 -203.71,4.55 -218.24,0.39 -436.53,0.39 -654.77,-1.23 -24.99,-0.14 -51.89,-7.09 -74.57,-17.89 -138.15,-65.72 -276.68,-130.81 -412.43,-201.23 -186.65,-96.82 -366.46,-205.28 -535.26,-331.29 -10.46,-7.83 -19.8,-17.27 -35.55,-31.15 24.06,-2.59 38.39,-4.75 52.81,-5.53 300.89,-16.23 601.77,-32.13 902.6,-48.85 21.17,-1.17 37.07,4.4 53.35,17.46 34.28,27.53 69.68,53.74 105.43,79.26 246.6,176.24 501.81,339.27 759.85,497.95 15.16,9.29 30.08,18.98 45.09,28.46 z M 6045.36,1405.83 c 23.43,-2.21 40.88,-4.4 58.44,-5.38 40.63,-2.25 81.32,-3.67 122,-5.87 224.4,-12.18 448.81,-24.2 673.16,-36.97 22.74,-1.32 39.61,5.23 57.02,20.1 255.25,217.7 511.15,434.72 766.85,651.98 6.99,5.97 13.4,12.57 26.89,25.28 -87.97,6.02 -166.99,12.03 -246.06,16.63 -227.63,13.11 -455.31,25.04 -682.84,39.12 -33.7,2.1 -58.1,-6.16 -82.4,-29.68 -222.2,-215.41 -445.38,-429.74 -668.12,-644.55 -7.78,-7.49 -13.79,-16.83 -24.94,-30.66 z m 1637.12,-86.46 c 37.51,-2.83 64.55,-5.52 91.59,-6.75 45.58,-2.15 91.2,-3.27 136.78,-4.98 297.9,-11.45 595.79,-22.69 893.69,-34.82 24.75,-0.98 42.69,5.52 60.25,23.57 206.16,211.2 424.01,409.83 648.66,601.18 6.55,5.57 11.68,12.91 21.66,24.05 -12.86,1.76 -18.88,2.89 -24.89,3.33 -306.85,24.11 -613.74,47.73 -920.49,72.81 -29.73,2.45 -52.38,-4.01 -76.58,-21.12 -235.6,-166.6 -462.11,-344.94 -683.53,-529.78 -47.14,-39.32 -92.81,-80.3 -147.14,-127.49 z m 2205.54,-29.63 c 19.86,2.74 27.92,3.28 35.7,5.08 145.78,33.65 292.78,62.99 437.18,102.11 482.6,130.8 955.3,292.47 1424.3,465.28 334.5,123.28 667.2,251.34 988.9,405.87 77.6,37.26 152,81.52 226.4,124.99 24.4,14.23 57.5,30.41 55,62.93 -2.8,36.34 -41.9,43.77 -69.3,53.3 -69.1,24.02 -138.8,48.17 -210.3,62.45 -205.8,41.22 -412,80.73 -619.1,114.87 -171.9,28.36 -345.2,47.23 -517.6,72.32 -35.6,5.18 -61.3,-4.6 -88.7,-26.26 -176.4,-139.51 -354.1,-277.22 -531,-416.09 -166.5,-130.76 -339.2,-254.33 -492.3,-401.37 -206.8,-198.68 -411.4,-399.66 -616.83,-599.76 -5.58,-5.43 -10.27,-11.74 -22.35,-25.72 z M 0,1222.5 c 6.39453,10.81 15.0586,20.93 18.8281,32.62 37.5821,116.23 106.2769,211.68 195.0389,293.74 49.516,45.82 107.051,69.39 175.625,74.96 338.508,27.39 677.298,21.27 1016.168,13.21 131.95,-3.13 263.9,-6.85 395.78,-12.28 376.06,-15.35 752.11,-31.2 1128.13,-47.92 192.05,-8.56 384.02,-19.37 576.01,-29.44 18.53,-0.98 33.81,1.08 48.72,15.21 183.57,173.6 374.09,339.22 582.68,498.15 -19.1,1.02 -30.69,3.13 -41.98,2.1 -154.1,-13.94 -308.2,-27.83 -462.21,-42.74 -145.89,-14.13 -291.63,-29.73 -437.49,-44.21 -121.55,-12.08 -243.1,-24.25 -364.78,-34.86 -47,-4.06 -94.37,-5.14 -141.58,-5.43 -44.5,-0.24 -66.91,16.72 -74.14,61.22 -5.18,31.74 -6.12,65.38 -1.8,97.22 14.16,104.3 48.56,202.1 102.05,293.2 28.46,48.51 67.03,76.77 125.4,79.36 79.66,3.53 159.06,14.33 238.71,16.29 497.03,12.37 994.05,5.62 1490.89,-9.39 81.14,-2.45 146.36,14.18 209.79,65.92 81.89,66.79 171.43,124.15 257.59,185.77 12.57,8.95 24.55,18.68 33.4,36.62 -67.28,-5.86 -134.62,-11.2 -201.87,-17.84 -147.48,-14.48 -294.91,-29.64 -442.37,-44.55 -145.82,-14.72 -291.51,-31.2 -437.54,-43.72 -100.37,-8.56 -200.6,-29.29 -301.77,-15.06 -33.1,4.65 -67.22,15.11 -96.54,30.95 -73.53,39.66 -90.77,117.36 -45.04,187.44 28.48,43.66 69.85,72.12 115.84,94.72 68.34,33.54 141.98,47.87 216.56,55.4 218.75,22.1 437.46,45.28 656.63,62.3 313.44,24.35 627.25,43.81 940.95,65.04 50.41,3.37 100.87,5.47 151.39,7.09 28.66,0.87 53.15,10.41 77.31,25.67 166.8,105.18 336.19,206.16 516.14,287.29 70.81,31.88 146.36,53.44 220.49,77.5 19.56,6.36 41.86,6.75 62.79,6.02 71.68,-2.55 105.57,-54.43 77.36,-121.18 -11.89,-28.07 -28.46,-55.55 -48.36,-78.53 -36.19,-41.76 -76.39,-80.1 -115.16,-119.56 -11.1,-11.35 -23.18,-21.71 -42.55,-39.66 18.24,0 26.8,-0.34 35.31,0.05 223.03,9.34 446.06,18.78 669.1,28.12 81.42,3.42 162.88,5.48 244.16,10.46 20.24,1.23 40.93,9.19 59.8,17.66 178.29,79.7 354.62,164.05 534.72,239.41 172.71,72.27 350.37,131.93 535.51,165.48 93.35,16.92 187.13,27.38 281.22,5.62 47.43,-11 88.66,-32.37 115.5,-75.31 43.33,-69.34 40.39,-138.72 -11.2,-204.06 -26.89,-34.13 -56.96,-65.71 -84.16,-96.87 2.35,0 12.67,-0.39 22.94,0.05 249.39,10.57 498.58,2.59 747.73,-7.38 33.84,-1.37 63.23,5.18 93.55,20.1 48.11,23.62 98.58,42.44 147.87,63.66 49.09,21.08 100.54,26.71 153.11,23.23 112.65,-7.53 223.35,-24.98 328.95,-66.55 50.2,-19.81 99.1,-42.4 124.7,-96.33 136.7,-13.06 272.8,-25.73 408.9,-39.12 95.6,-9.44 191.2,-19.13 286.6,-30.37 31.1,-3.67 55.6,3.47 81.3,21.96 95.3,68.31 193.1,133.25 288.6,201.22 58.5,41.51 123.3,65.38 192.5,79.41 142.9,28.95 287.2,42.74 432.5,28.51 57.6,-5.62 114.4,-23.08 170.7,-38.24 21.1,-5.67 39.9,-20.1 59.4,-30.42 -5,-35.5 -26.6,-56.57 -47.5,-76.04 -89.3,-83.27 -179.9,-165.23 -270.2,-247.53 -13.9,-12.66 -28.3,-24.79 -48.6,-42.49 97.8,-14.57 185.9,-26.8 273.8,-40.98 281.2,-45.33 562.6,-89.63 843.4,-137.6 293.7,-50.22 584.9,-112.86 873.2,-188.17 179.6,-46.89 357.8,-98.73 527.9,-174.67 31.1,-13.89 61.6,-29.49 91.8,-45.43 51.9,-27.38 97.7,-62.4 131.8,-111.1 0,-26.06 0,-52.17 0,-78.24 -16.9,-18.73 -32.7,-38.78 -51.1,-55.94 -50.5,-47.14 -110.4,-80.1 -172.2,-109.69 -148.6,-71 -304.6,-122.93 -460,-175.94 -314.1,-107.04 -629.7,-209.34 -934.1,-342.73 -307.1,-134.63 -595.4,-300.06 -858.2,-509.4 -192.6,-153.347 -372.1,-321.269 -552.9,-487.871 -142.6,-131.394 -285.7,-261.957 -447,-370.711 C 11045.6,106.555 10886,32.7148 10706.3,7.875 c -5.9,-0.83203 -11.2,-5.18359 -16.8,-7.875 -81.5,0 -162.9,0 -244.5,0 -5.8,2.49609 -11.4,6.60156 -17.4,7.33594 -162.1,18.73046 -320.7,55.69526 -478.31,96.09006 -332.57,85.281 -664.55,172.91 -996.29,261.273 -30.9,8.215 -50.27,1.465 -75.01,-16.383 C 8779.16,276.824 8679.6,206.016 8577.11,139.855 8515.54,100.051 8446.84,72.7617 8373,62.25 c -134.62,-19.1172 -230.32,70.418 -219.12,204.648 6.5,77.895 37.51,147.727 70.95,216.774 7.63,15.746 15.41,31.441 24.01,49.047 -15.2,4.351 -25.86,7.922 -36.77,10.414 -334.96,75.941 -671.98,141.418 -1010.37,200.051 -35.06,6.062 -74.38,21.515 -104.79,11.492 -30.52,-10.028 -52.33,-46.555 -78.1,-71.297 -109.29,-104.891 -216.33,-212.227 -328.7,-313.695 -87.29,-78.825 -189.69,-131.246 -310.18,-141.172 -86.84,-7.188 -168.7,-34.184 -249.14,-66.164 -49.88,-19.852 -99.36,-41.465 -150.71,-56.379 -30.37,-8.8049 -64.94,-12.0315 -96.04,-7.3362 -89.29,13.4962 -117.12,69.7302 -70.37,145.1372 34.18,55.109 71.84,109.582 116.24,156.527 134.28,142.004 272.52,280.195 409.29,419.855 11.88,12.125 24.16,23.91 42.44,41.957 -25.96,3.618 -41.75,6.161 -57.65,7.969 -42.05,4.84 -84.06,9.926 -126.21,13.938 -197.75,18.777 -395.6,36.968 -593.3,56.086 -26.26,2.496 -45.58,-4.301 -65.28,-22.981 C 5452.94,835.215 5367.41,752.328 5277,675.164 5168.05,582.156 5056.21,492.324 4942.23,405.48 4860.58,343.277 4771.67,291.102 4673.51,257.996 4622.5,240.785 4570.5,227.777 4515.47,242.055 c -70.52,18.191 -91.72,47.972 -67.66,116.824 20.25,57.945 46.57,114.719 77.28,167.871 84.1,145.625 187.2,278.242 290.44,410.566 10.42,13.399 19.85,27.532 33.86,47.043 -73.61,4.106 -138.08,8.653 -202.63,11.098 -306.07,11.743 -612.18,22.643 -918.23,34.813 -27.78,1.08 -49.42,-5.72 -71.47,-22.73 C 3544.86,920.984 3433.7,832.77 3318.02,751.055 3201.1,668.414 3080.47,590.859 2958.98,515.066 c -40.73,-25.429 -87.95,-42.347 -134.25,-56.433 -57.68,-17.602 -87.18,8.215 -85.52,68.363 0.35,12.859 1.34,26.75 6.37,38.289 24.02,54.914 43.19,113.399 75.87,162.836 62.74,94.965 133.42,184.649 200.89,276.479 9.33,12.67 19.2,24.94 31.99,41.52 -16.31,2 -26.98,4.26 -37.71,4.59 -157.98,4.7 -315.94,10.18 -473.94,13.45 -263.91,5.53 -527.84,12.03 -791.78,13.7 -537.68,3.37 -1075.377,3.96 -1613.064,5.03 -53.6368,0.1 -100.8985,8.12 -126.2969,63.04 -1.70707,3.71 -7.59379,5.47 -11.5391,8.11 0,22.84 0,45.62 0,68.46"
               inkscape:connector-curvature="0" />
            <path
               id="path3093"
               style="fill:#ffffff;fill-opacity:1;fill-rule:evenodd;stroke:none"
               d="m 7491.48,11217.7 c 19.07,-2.5 38.09,-6.7 57.26,-7.3 262.25,-8.2 524.6,-13.3 786.71,-24.3 327.23,-13.8 654.33,-30.9 981.27,-49.5 234.23,-13.3 468.27,-29.9 702.18,-48 250.1,-19.5 500.1,-40.5 749.8,-64.7 254.4,-24.6 508.9,-50.6 762.5,-82.3 256.8,-32.2 512.8,-69.6 764.1,-135.2 136.4,-35.6 216.6,-121.6 248.5,-253.8 18.5,-77.1 9.3,-156.1 -13.2,-231.9 -36.6,-123.3 -75.9,-245.7 -114.2,-368.42 -50.1,-160.75 -79.6,-325.26 -94.9,-492.94 -19.6,-215.72 -42.3,-431.16 -64.4,-646.65 -20.4,-199.28 -41,-398.55 -62.7,-597.69 -24.2,-221.8 -49.3,-443.49 -74.6,-665.16 -26.8,-234.61 -53.5,-469.23 -81.8,-703.67 -26.8,-223.1 -56.1,-445.92 -83.4,-668.97 -28.5,-232.72 -68.9,-464.31 -77.7,-698.98 -4.6,-123.57 -2.4,-247.68 2.7,-371.3 5.3,-130.12 17.8,-260 27.1,-389.97 0.6,-9.74 0.8,-19.52 0.7,-29.25 -0.2,-33.64 -15.2,-57.06 -49.2,-62.74 -61,-10.07 -122.1,-25.28 -183.3,-25.87 -193.8,-1.86 -387.8,-0.19 -581.6,4.5 -146.5,3.52 -293,12.72 -439.4,21.27 -257,14.97 -513.8,31.59 -770.82,47.14 -186.99,11.35 -374.03,22.45 -561.13,32.91 -79.7,4.5 -159.61,5.77 -239.26,11.05 -142.01,9.4 -283.14,-0.53 -424.55,-12.85 -136.24,-11.94 -272.91,-20.74 -409.59,-26.46 -372.86,-15.55 -745.82,-28.17 -1118.73,-43.23 -136.73,-5.52 -273.7,-10.46 -409.84,-23.32 -167.23,-15.8 -330.12,-57.95 -493.35,-96.19 -346.99,-81.27 -693.4,-165.33 -1040.93,-244.4 -195.26,-44.4 -392.49,-80.3 -592.09,-99.22 -115.12,-10.9 -231.02,-18.39 -345.53,6.85 -28.26,6.21 -56.6,16.43 -82.06,30.12 -52.45,28.17 -75.91,78.14 -60.02,135.84 13.74,49.93 33.43,98.58 54.43,146.07 85.03,192.32 162.07,387.33 215.13,591.29 48.08,184.85 78.27,372.43 95.53,562.6 23.63,260.24 24.61,521.03 15.19,781.56 -9.07,250.67 -28.74,500.95 -43.12,751.43 -14.48,252.09 -25.89,504.39 -43.11,756.29 -9.66,141.19 -23.62,282.46 -43.93,422.5 -57.08,393.53 -155.61,778.62 -243.31,1165.93 -54.62,241.24 -106.6,483.13 -155.13,725.63 -17.83,89.1 -24.34,180.7 -31.93,271.5 -3.21,38.4 2.06,78.1 7.12,116.7 5.89,45.1 29.96,81.9 61.14,114.4 58.45,60.9 132.31,94.9 211.87,115.4 176.44,45.6 351.75,37.7 524.65,-19.8 89.52,-29.8 154.3,-85.3 192.82,-174.1 68.22,-157.4 116.92,-321 161.42,-486 108.95,-404.23 195.75,-813.48 265.28,-1226.11 58.68,-348.31 114.38,-697.29 161.86,-1047.29 35.84,-264.51 58.19,-530.94 83.52,-796.8 23.96,-251.51 39.07,-503.72 35.36,-756.53 -3.23,-218.38 -18.78,-435.98 -43.43,-653.15 -34.23,-301.32 -91.93,-598.39 -154.77,-894.72 -4.98,-23.57 -8.85,-47.38 -14.42,-77.65 28.56,2 52.57,1.81 75.94,5.62 286.07,46.41 571.44,97.07 858.1,139.22 285.08,41.86 570.95,79.51 857.31,111.2 234.68,25.96 470.32,44.55 705.97,59.17 473.74,29.39 948.03,21.61 1422.26,12.42 135.21,-2.59 270.46,-6.26 405.67,-8.8 286.78,-5.33 573.58,-11.64 860.38,-14.67 120.2,-1.32 127.3,2.49 156.9,120.39 39.3,156.09 75.3,313.4 103.2,471.88 49.1,278.93 93.5,558.73 135.2,838.89 37.3,251.22 69.4,503.25 102,755.14 29.4,226.07 57.7,452.29 84.2,678.72 22.4,192.48 42.7,385.26 62,578.09 22.6,225.27 46.2,450.51 63.9,676.18 20.2,258.21 42.2,516.55 35.8,776.08 -0.3,13.03 -1.8,26.08 -1.4,39.08 2.7,92.84 -45.8,152.34 -124,193.64 -80.5,42.6 -167.9,61.9 -256.6,74.8 -264.4,38.7 -529.8,32.1 -795.1,13.3 -172.2,-12.2 -344.42,-25.6 -516.06,-43.7 -191.1,-20.1 -381.81,-44.2 -572.13,-70.3 -211.3,-29 -422.16,-61.3 -632.91,-93.8 -214.04,-32.9 -427.54,-68.94 -641.62,-101.57 -230.13,-35.09 -460.45,-68.71 -691.06,-100.56 -36.18,-5 -75.01,-1.74 -111.05,5.59 -65.38,13.29 -105.18,57.68 -118.78,121.94 -8.06,37.9 -9.38,77.4 -12.17,116.2 -3.38,47.1 -2.89,94.5 -7.97,141.4 -9.34,86.1 -51.74,128.6 -137.31,138.2 -40.39,4.6 -81.42,7.4 -121.96,5.7 -131.88,-5.5 -263.57,-13.8 -395.41,-20.3 -132.17,-6.5 -263.86,-3.8 -393.59,26.6 -79.76,18.6 -148.71,55.7 -203.67,117.9 -50.96,57.6 -63.52,122.2 -28.17,189.5 26.26,50 58.58,98.1 95.41,140.9 80.68,93.9 166.26,183.6 249.24,275.5 24.26,26.9 55.31,41.3 89.1,47.1 86.55,14.8 173.15,31.9 260.44,38.9 142.83,11.5 286.31,15.6 429.44,23.2 19.41,1.1 38.72,4.4 58.09,6.7 241.22,0 482.5,0 723.72,0"
               inkscape:connector-curvature="0" />
            <path
               id="path3095"
               style="fill:#ffffff;fill-opacity:1;fill-rule:evenodd;stroke:none"
               d="m 9672.62,8617.81 c 66.21,38.09 132.52,76.1 198.68,114.27 124.2,71.63 250.4,139.46 384,192.11 40.7,16.06 83.2,28.55 125.8,38.33 26.5,6.07 55.2,7.38 82.4,4.82 50.1,-4.75 80.3,-42.86 70,-91.91 -6.2,-29.24 -19,-60.37 -37.9,-82.95 -44.9,-53.45 -90.7,-107.86 -144.3,-151.91 -132,-108.52 -268.7,-211.39 -403.42,-316.69 -15.26,-11.96 -29.79,-24.92 -44.65,-37.45 -118.34,-86.16 -236.73,-172.24 -354.92,-258.54 -9.88,-7.18 -18.63,-15.84 -35.4,-30.32 179.51,-21.83 349.98,-42.55 520.39,-63.27 143.5,-19.97 286.8,-41.8 430.6,-59.23 93.8,-11.37 180.9,-42.49 264,-83.61 81.4,-40.33 159.5,-87.73 236.8,-135.65 34.2,-21.18 63.3,-50.87 77,-91.04 -12.1,-19.16 -30.1,-14.09 -45.1,-13.52 -92.7,3.48 -185.6,6.05 -278.2,12.88 -134.7,9.96 -269.3,23.41 -403.9,35.06 -79.5,6.89 -158.9,13.19 -238.5,19.74 -49.6,6.15 -99.32,12.87 -149.15,18.34 -115.85,12.71 -231.69,25.39 -347.64,36.98 -85.37,8.52 -170.9,15.29 -256.33,22.84 -43.13,5.93 -86.21,12.5 -129.49,17.26 -8.45,0.93 -19.36,-2.98 -26.25,-8.34 -48.66,-37.58 -96.68,-76 -144.55,-114.51 -7.78,-6.24 -14.13,-14.24 -25.43,-25.8 37.46,-4.36 67.63,-8.1 97.85,-11.32 77.21,-8.22 154.42,-16.22 231.64,-24.31 14.23,-2.88 28.36,-6.46 42.69,-8.53 153.79,-22.22 307.58,-44.32 461.37,-66.21 80.1,-11.4 160.29,-22.3 240.49,-33.43 68.6,-12.63 137.3,-24.4 205.7,-38.1 143.5,-28.75 287.7,-54.76 430,-89.03 118,-28.45 207.9,-104.37 284.9,-195.84 4.2,-4.95 7.8,-10.52 10.9,-16.16 25.1,-44.23 11.9,-71.77 -37.9,-68.83 -81.2,4.78 -162.4,12.44 -242.9,23.78 -227.2,32 -454.1,66.53 -681.1,99.88 -8,1.17 -16.2,0.53 -24.4,0.74 -20.7,3.62 -41.39,7.7 -62.17,10.76 -149,21.92 -297.9,44.18 -447.04,65.12 -65.67,9.22 -131.74,15.62 -197.65,23.3 -14.24,3.02 -28.32,7.14 -42.74,8.87 -176.09,21.17 -352.38,40.68 -528.22,63.91 -38.83,5.13 -70.08,1.86 -96.97,-27.31 -5.48,-5.93 -12.08,-11.04 -18.83,-15.47 -18.53,-12.11 -22.49,-28.13 -21.27,-50.16 6.45,-117.06 10.81,-234.22 16.04,-351.34 7.58,-169.18 15.25,-338.35 22.88,-507.52 -35.2,-4.06 -70.27,-10.75 -105.52,-11.62 -74.13,-1.84 -148.41,-0.81 -220.64,20.04 -15.94,198.63 -31.88,397.28 -48.46,603.99 -157.16,-127.49 -308.07,-249.9 -458.97,-372.31 -47.29,41.45 -97.61,80.01 -141.28,124.99 -73.4,75.55 -139.65,157.3 -183.86,254.43 17.16,14.89 34.42,29.65 51.44,44.68 120.74,106.48 241.42,213 362.16,319.53 10.46,9.27 20.93,18.61 38.97,34.66 -205.57,11.78 -401.62,23.13 -598.15,26.7 -20.09,94 -17.8,188.51 -6.45,283.23 25.87,-2.84 51.64,-6.65 77.51,-8.36 87.77,-5.78 175.64,-10.56 263.42,-16.18 173.99,-11.15 347.92,-22.65 521.86,-33.83 12.33,-0.78 24.75,-0.1 37.75,-0.1 0,51.65 0,98.24 0,150.54 -293.5,12.46 -584.35,24.82 -875.26,37.16 16.48,48.71 28.8,99.33 50.22,145.72 38.19,82.52 89,157.16 160.29,215.79 227.98,-16.32 456,-32.65 684.95,-49.04 3.47,29.75 6.21,53.84 9.14,77.92 10.71,88.74 21.52,177.47 32.28,266.21 3.32,15.93 7.09,31.78 9.87,47.79 22.6,129.72 44.55,259.56 67.68,389.19 13.35,75.14 28.41,149.98 42.74,224.95 22.49,81.26 41.91,163.54 68.31,243.5 32.08,97 67.83,192.97 106.7,287.43 14.48,35.17 38.88,68.04 64.89,96.31 43.33,47.14 103.67,39.41 131.69,-18.55 16.43,-33.9 27.09,-74.77 25.97,-112.08 -2.45,-82.56 -11.3,-165.23 -22.64,-247.15 -10.27,-73.93 -27.63,-146.85 -41.13,-220.36 -2.59,-14.14 -1.76,-28.91 -2.49,-43.4 -3.87,-10.41 -9.29,-20.52 -11.4,-31.28 -25.47,-132.09 -51.68,-264.08 -75.16,-396.54 -12.41,-70.12 -19.85,-141.12 -29.53,-211.72 -21.37,-126.35 -30.17,-253.74 -36.04,-380.65 8.85,-3.27 13.25,-5.94 17.9,-6.43 75.94,-8.17 151.83,-16.98 227.97,-23.2 14.47,-1.19 32.13,4.72 44.45,13.09 81.96,55.85 162.98,113 243.82,170.48 9.82,6.98 16.47,18.41 24.59,27.78 15.8,7.48 32.71,13.23 47.24,22.73 118.09,77.35 235.75,155.43 353.54,233.23 40.54,26.76 81.23,53.36 121.82,80.04"
               inkscape:connector-curvature="0" />
            <path
               id="path3097"
               style="fill:#ffffff;fill-opacity:1;fill-rule:evenodd;stroke:none"
               d="m 9309.54,7237.52 c 65.91,-7.68 131.98,-14.08 197.65,-23.3 149.14,-20.94 298.04,-43.2 447.04,-65.12 20.78,-3.06 41.47,-7.14 62.17,-10.76 -76.79,-274.36 -220.56,-508.69 -426.18,-704.64 -258.19,-246.09 -566.11,-387.16 -920.4,-427.46 -6.45,-0.73 -12.86,-1.91 -19.26,-2.83 -98.24,0.19 -196.58,0.39 -294.87,0.63 -139.02,18.05 -275.31,46.75 -406.6,97.66 -151.3,58.62 -290.32,138.23 -417.32,239.08 -8.85,7.03 -18.48,13.04 -27.77,19.52 -109.14,101.1 -211.89,207.94 -297.12,330.54 -0.83,1.2 -2.69,1.66 -4.11,2.46 -35.4,63.61 -73.2,126.01 -105.67,191.08 -77.31,154.93 -125.53,318.92 -145.38,491.14 -1.47,12.78 -5.47,25.27 -8.31,37.9 -0.29,97.25 -0.59,194.5 -0.93,291.75 5.91,43.76 11.83,87.51 17.7,131.26 9.39,39.28 16.63,79.21 28.51,117.72 24.84,80.39 52.08,160.01 78.29,239.96 46.84,83.51 87.82,171.05 141.56,249.85 236.83,347.08 561.57,568.04 972.09,659.4 75.75,16.85 154.23,21.13 231.49,31.22 -14.33,-74.97 -29.39,-149.81 -42.74,-224.95 -23.13,-129.63 -45.08,-259.47 -67.68,-389.19 -2.78,-16.01 -6.55,-31.86 -9.82,-47.8 -148.61,-12.22 -292.47,-45.15 -429.98,-102.69 -110.13,-46.07 -213.5,-103.82 -296.44,-192.39 -71.29,-58.63 -122.1,-133.27 -160.29,-215.79 -21.42,-46.39 -33.74,-97.01 -50.22,-145.72 -8.41,-43.08 -16.82,-86.15 -25.28,-129.23 -11.35,-94.72 -13.64,-189.23 6.45,-283.24 18.98,-151.96 67.68,-293.76 145.58,-425.56 44.21,-97.13 110.46,-178.88 183.86,-254.43 43.67,-44.98 93.99,-83.54 141.28,-124.97 48.02,-33.14 94.03,-69.6 144.35,-98.76 112.91,-65.45 232.61,-114.43 363.08,-132.94 72.23,-20.85 146.51,-21.88 220.64,-20.04 35.25,0.87 70.32,7.56 105.48,11.62 135.59,11.95 253.88,65.29 356.48,152.97 123.96,105.92 195.06,245.31 244.4,397.48 34.67,107 53.3,217.43 68.27,328.57"
               inkscape:connector-curvature="0" />
            <path
               id="path3099"
               style="fill:#ffffff;fill-opacity:1;fill-rule:evenodd;stroke:none"
               d="m 8627.33,8480.74 c 9.68,70.6 17.12,141.6 29.53,211.72 23.48,132.46 49.69,264.45 75.16,396.54 2.11,10.76 7.53,20.87 11.4,31.28 368.61,-58.58 678.58,-225.64 929.2,-502.45 -40.59,-26.7 -81.28,-53.3 -121.82,-80.06 -117.79,-77.8 -235.45,-155.88 -353.54,-233.23 -14.53,-9.5 -31.44,-15.25 -47.24,-22.72 -59.81,63.95 -130.9,110.02 -213.35,140.21 -100.1,36.67 -203.72,52.32 -309.34,58.71"
               inkscape:connector-curvature="0" />
            <path
               id="path3101"
               style="fill:#ffffff;fill-opacity:1;fill-rule:evenodd;stroke:none"
               d="m 7066.98,8194.11 c -26.21,-79.95 -53.45,-159.57 -78.29,-239.96 -11.88,-38.51 -19.12,-78.44 -28.51,-117.72 -113.5,8.85 -227.04,16.83 -340.44,26.71 -187.92,16.37 -375.7,34.11 -559.51,79.07 -34.58,8.46 -67.83,22.19 -101.57,33.83 -6.06,2.1 -11.83,5.43 -17.31,8.93 -26.5,17.02 -53.64,36.1 -53.55,70.6 0.15,36.89 32.08,50.47 60.3,62.82 80,35 165.77,46.52 251.39,55.71 285.33,30.61 571.55,30.47 857.96,21.94 3.17,-0.09 6.35,-1.27 9.53,-1.93"
               inkscape:connector-curvature="0" />
            <path
               id="path3103"
               style="fill:#ffffff;fill-opacity:1;fill-rule:evenodd;stroke:none"
               d="m 7202.77,6693.3 c 1.42,-0.8 3.28,-1.26 4.11,-2.46 85.23,-122.6 187.98,-229.44 297.12,-330.54 -194.77,-150.34 -389.69,-300.71 -605.82,-419.98 -42.3,-23.32 -88.61,-41.27 -135.11,-54.42 -49.69,-14.04 -81.37,11.78 -77.36,63.32 2.98,38.1 11.83,78.73 29.68,112.03 39.02,72.96 81.76,144.65 129.58,212.13 106.65,150.45 228.85,288.18 357.8,419.92"
               inkscape:connector-curvature="0" />
            <path
               id="path3105"
               style="fill:#ffffff;fill-opacity:1;fill-rule:evenodd;stroke:none"
               d="m 6942.48,7705.17 c 0.34,-97.25 0.64,-194.5 0.93,-291.75 -164.36,6.45 -328.8,11.27 -493.01,20.06 -81.52,4.36 -161.42,21.41 -236.48,55.61 -101.27,46.14 -208.31,73.73 -315.75,100.57 -36.09,9 -71.24,22.42 -105.82,36.26 -12.91,5.16 -25.28,15.53 -33.89,26.62 -19.31,24.8 -12.56,48.5 17.9,54.59 44.55,8.9 90.12,17.15 135.26,17.36 198.78,0.95 397.56,0.79 596.24,-2.69 144.94,-2.54 289.78,-10.87 434.62,-16.63"
               inkscape:connector-curvature="0" />
            <path
               id="path3107"
               style="fill:#ffffff;fill-opacity:1;fill-rule:evenodd;stroke:none"
               d="m 8355.69,6004.04 c 98.29,-0.24 196.63,-0.44 294.87,-0.63 -1.62,-156.34 0.29,-312.96 -24.7,-467.83 -8.5,-52.62 -23.08,-104.7 -39.56,-155.5 -7.14,-22.11 -23.52,-42.89 -40.14,-59.91 -22.06,-22.49 -38.88,-19.31 -55.31,6.85 -8.61,13.64 -14.82,29 -20.24,44.25 -35.16,98.59 -52.97,201.28 -68.91,304.11 -16.86,109.3 -30.8,219.08 -46.01,328.66"
               inkscape:connector-curvature="0" />
            <path
               id="path3109"
               style="fill:#ffffff;fill-opacity:1;fill-rule:evenodd;stroke:none"
               d="m 9322.88,7697.09 c 85.43,-7.55 170.96,-14.32 256.33,-22.84 115.95,-11.59 231.79,-24.27 347.64,-36.98 49.83,-5.47 99.55,-12.19 149.15,-18.34 -1.6,-65.66 -3.2,-131.34 -4.8,-197.02 -80.2,11.12 -160.39,22.02 -240.49,33.42 -153.79,21.89 -307.58,43.99 -461.37,66.21 -14.33,2.07 -28.46,5.65 -42.69,8.53 -1.27,55.68 -2.49,111.35 -3.77,167.02"
               inkscape:connector-curvature="0" />
            <path
               id="path3111"
               style="fill:#ffffff;fill-opacity:1;fill-rule:evenodd;stroke:none"
               d="m 10033.3,7934.3 c -170.41,20.72 -340.88,41.44 -520.39,63.27 16.77,14.48 25.52,23.14 35.4,30.32 118.19,86.3 236.58,172.38 354.92,258.54 58.24,-111.85 101.87,-229.12 130.07,-352.13"
               inkscape:connector-curvature="0" />
          </g>
        </g>
      </g>
    </g>
  </g>
</svg>
